<svg xmlns="http://www.w3.org/2000/svg" width="173" height="58" viewBox="0 0 173 58" fill="none"><path d="M4.47035e-08 0.479997H13.56V45H4.47035e-08V0.479997ZM42.3703 11.58C46.4103 11.58 49.6503 12.8 52.0903 15.24C54.5703 17.68 55.8103 21.36 55.8103 26.28V45H42.2503V28.62C42.2503 24.86 40.9103 22.98 38.2303 22.98C36.7103 22.98 35.4703 23.52 34.5103 24.6C33.5903 25.64 33.1303 27.3 33.1303 29.58V45H19.5703V12.18H32.4703V15.42C33.7503 14.14 35.2303 13.18 36.9103 12.54C38.5903 11.9 40.4103 11.58 42.3703 11.58ZM98.9452 12.18V38.46C98.9452 44.7 97.2052 49.38 93.7252 52.5C90.2852 55.66 85.3652 57.24 78.9652 57.24C75.6852 57.24 72.6252 56.88 69.7852 56.16C66.9452 55.48 64.5252 54.48 62.5252 53.16L67.0852 43.92C68.3652 44.88 69.9852 45.66 71.9452 46.26C73.9052 46.86 75.7852 47.16 77.5852 47.16C80.3052 47.16 82.2852 46.58 83.5252 45.42C84.7652 44.26 85.3852 42.56 85.3852 40.32V39.72C83.3452 42.04 80.3252 43.2 76.3252 43.2C73.5252 43.2 70.9052 42.56 68.4652 41.28C66.0652 39.96 64.1452 38.1 62.7052 35.7C61.2652 33.26 60.5452 30.48 60.5452 27.36C60.5452 24.24 61.2652 21.48 62.7052 19.08C64.1452 16.68 66.0652 14.84 68.4652 13.56C70.9052 12.24 73.5252 11.58 76.3252 11.58C80.8052 11.58 84.0452 13.02 86.0452 15.9V12.18H98.9452ZM79.9252 32.64C81.5252 32.64 82.8452 32.16 83.8852 31.2C84.9652 30.2 85.5052 28.92 85.5052 27.36C85.5052 25.8 84.9652 24.54 83.8852 23.58C82.8452 22.62 81.5252 22.14 79.9252 22.14C78.2852 22.14 76.9252 22.62 75.8452 23.58C74.8052 24.54 74.2852 25.8 74.2852 27.36C74.2852 28.92 74.8252 30.2 75.9052 31.2C76.9852 32.16 78.3252 32.64 79.9252 32.64ZM135.061 35.1V45H103.741V37.2L117.301 22.08H104.221V12.18H134.401V19.98L120.841 35.1H135.061ZM139.16 0.479997H152.72V45H139.16V0.479997Z" fill="#1E240A"></path><path d="M164.85 45.6C162.57 45.6 160.67 44.88 159.15 43.44C157.67 41.96 156.93 40.08 156.93 37.8C156.93 35.52 157.67 33.68 159.15 32.28C160.67 30.84 162.57 30.12 164.85 30.12C167.13 30.12 169.01 30.84 170.49 32.28C172.01 33.68 172.77 35.52 172.77 37.8C172.77 40.08 172.01 41.96 170.49 43.44C169.01 44.88 167.13 45.6 164.85 45.6Z" fill="#667EEA"></path></svg>